<?xml version="1.0" encoding="iso-8859-1"?>
<svg version="1.1" id="Camada_1" xmlns="http://www.w3.org/2000/svg" xmlns:xlink="http://www.w3.org/1999/xlink" x="0px" y="0px"
	 viewBox="0 0 383.765 101.882" style="enable-background:new 0 0 383.765 101.882;" xml:space="preserve">
<path style="fill-rule:evenodd;clip-rule:evenodd;fill:#002E6E;" d="M41.55,19.504c-0.939-3.409-1.386-7.306-1.187-9.804
	c0.035-0.818-0.03-1.627-0.19-2.398c-0.301-2.834-2.058-5.946-5.722-6.48c-0.902-0.184-1.907-0.182-3.019,0.065
	c-4.59,1.018-9.024,5.321-9.296,10.733c-0.229,4.504,4.492,12.932,1.876,15.99c-1.371,1.604-7.785,1.591-10.394,2.28l6.02-0.215
	c2.058-0.074,3.802,1.155,4.622,3.01c0.153,0.316,0.275,0.653,0.365,1.006v0.001c0.011,0.043,0.022,0.085,0.031,0.128v0.001
	l0.028,0.129v0.001l0.025,0.131v0.001c0.008,0.044,0.015,0.088,0.021,0.133l0,0l0.02,0.134l0,0l0.016,0.135l0,0l0.013,0.136l0,0
	l0.01,0.138c0.011,0.184,0.014,0.372,0.008,0.561l-0.007,0.22l-0.008,0.24c-0.008,0.237-0.028,0.471-0.062,0.702v0.001l-0.022,0.137
	v0.001l-0.025,0.136v0.001l-0.028,0.135l0,0l-0.03,0.134v0.001l-0.034,0.133l0,0l-0.036,0.132l0,0l-0.04,0.131l0,0l-0.042,0.13
	l-0.045,0.129l-0.048,0.129l-0.051,0.125l-0.045,0.106c-0.549,1.376-1.541,2.509-2.764,3.169c2.475,0.336,4.337,2.381,4.443,4.974
	c0.012,0.178,0.015,0.361,0.009,0.545l-0.014,0.458c-0.09,2.829-2.312,5.236-5.088,5.643l0.1,0.026
	c0.072,0.02,0.144,0.041,0.215,0.065l0.02,0.007c0.15,0.05,0.297,0.108,0.439,0.173l0.002,0.001c0.14,0.063,0.275,0.134,0.407,0.211
	l0.022,0.012l0.022,0.013l0.081,0.05l0.005,0.003c0.098,0.062,0.194,0.128,0.288,0.197l0.019,0.014
	c0.06,0.045,0.119,0.092,0.178,0.14l0.001,0.001l0.008,0.006c0.295,0.246,0.561,0.53,0.793,0.846l0.068,0.096
	c0.149,0.213,0.282,0.439,0.398,0.677l0.007,0.015l0.052,0.11l0.006,0.012c0.031,0.069,0.061,0.14,0.09,0.211l0.01,0.026
	c0.029,0.076,0.057,0.152,0.084,0.229l0.001,0.003l0.034,0.105c0.018,0.057,0.036,0.115,0.052,0.174l0.018,0.068l0.007,0.024
	l0.008,0.032l0.023,0.095l0.003,0.012l0.024,0.108l0.002,0.009l0.006,0.029l0.017,0.087l0.008,0.042
	c0.012,0.066,0.022,0.131,0.031,0.197l0.01,0.077l0,0l0.012,0.095l0.011,0.108l0.002,0.023l0.001,0.004l0.002,0.029l0.008,0.108
	l0.005,0.088l0.004,0.094l0.001,0.064l0.001,0.05v0.084v0.042l-0.003,0.134l-0.016,0.453c-0.093,2.856-2.215,5.27-4.826,5.595
	c0.068,0.016,0.135,0.035,0.201,0.055c0.072,0.022,0.143,0.045,0.213,0.071l0,0h0.001h0.001c0.348,0.129,0.676,0.306,0.978,0.527
	l0.011,0.008l0.005,0.004c0.395,0.292,0.745,0.657,1.039,1.081l0.039,0.057l0.028,0.042l0.007,0.01
	c0.125,0.192,0.239,0.394,0.34,0.606l0.022,0.047l0.01,0.022l0.029,0.064l0.042,0.096l0.007,0.018l0.007,0.017
	c0.06,0.145,0.114,0.294,0.162,0.447v0.002l0.003,0.009l0.003,0.009l0.03,0.101l0.004,0.013l0.01,0.036l0.024,0.088l0.001,0.004
	l0.001,0.003l0.001,0.004c0.318,1.213,0.252,2.759-0.18,4.154c-0.652,2.105-2.209,3.298-4.069,3.382l-7.018,0.317
	c2.654,0.173,5.446,0.33,8.299,0.448h18.813c0.977-0.055,1.941-0.12,2.887-0.197c0.143-0.012,0.524-0.077,0.943-0.211
	c5.833-1.261,10.373-6.743,10.449-13.003c0,0-0.562-18.9-0.279-24.344c0.414-7.924-3.028-9.179-7.827-12.597
	C43.483,24.422,42.358,22.151,41.55,19.504z"/>
<path style="fill-rule:evenodd;clip-rule:evenodd;fill:#002E6E;" d="M19.735,30.283c2.702-0.1,4.812,2.118,4.712,4.952l-0.015,0.428
	c-0.1,2.834-2.37,5.211-5.072,5.311L7.21,41.419c-2.702,0.099-4.811-2.119-4.712-4.953l0.015-0.428
	c0.099-2.834,2.369-5.212,5.071-5.312L19.735,30.283z"/>
<path style="fill-rule:evenodd;clip-rule:evenodd;fill:#002E6E;" d="M20.382,41.597c2.968-0.109,5.295,2.129,5.196,4.996
	l-0.014,0.433c-0.098,2.867-2.583,5.28-5.552,5.388L6.665,52.9c-2.969,0.108-5.297-2.129-5.198-4.995l0.015-0.433
	c0.098-2.866,2.583-5.279,5.552-5.388L20.382,41.597z"/>
<path style="fill-rule:evenodd;clip-rule:evenodd;fill:#002E6E;" d="M19.405,53.122c2.726-0.103,4.849,2.034,4.744,4.771
	l-0.016,0.412c-0.105,2.738-2.399,5.039-5.124,5.141L6.756,63.904c-2.725,0.101-4.848-2.036-4.744-4.773l0.017-0.413
	c0.104-2.737,2.398-5.039,5.123-5.139L19.405,53.122z"/>
<path style="fill-rule:evenodd;clip-rule:evenodd;fill:#002E6E;" d="M18.333,64.293c2.456-0.086,4.384,2.092,4.308,4.866
	l-0.011,0.418c-0.075,2.772-2.128,5.092-4.584,5.178L7.002,75.14c-2.456,0.086-4.385-2.092-4.309-4.866l0.011-0.418
	c0.076-2.773,2.128-5.091,4.584-5.177L18.333,64.293z"/>
<g>
	<path style="fill:#002E6E;" d="M253.911,93.586c0,0.811-0.163,1.535-0.489,2.173c-0.327,0.639-0.775,1.168-1.346,1.588
		c-0.661,0.495-1.388,0.849-2.18,1.059s-1.796,0.315-3.012,0.315h-7.319V81.953h6.509c1.351,0,2.34,0.045,2.967,0.136
		c0.627,0.09,1.248,0.289,1.863,0.597c0.639,0.322,1.113,0.756,1.425,1.301c0.312,0.544,0.468,1.165,0.468,1.863
		c0,0.811-0.214,1.525-0.643,2.146c-0.428,0.619-1.032,1.102-1.813,1.446v0.091c1.096,0.218,1.965,0.668,2.606,1.351
		C253.59,91.567,253.911,92.467,253.911,93.586z M248.371,86.695c0-0.278-0.069-0.556-0.208-0.834
		c-0.14-0.277-0.385-0.483-0.738-0.619c-0.314-0.12-0.707-0.186-1.177-0.197c-0.469-0.011-1.128-0.017-1.976-0.017h-0.405v3.547
		h0.676c0.683,0,1.265-0.011,1.745-0.033s0.859-0.098,1.137-0.226c0.391-0.173,0.646-0.396,0.767-0.67
		C248.31,87.372,248.371,87.055,248.371,86.695z M249.417,93.518c0-0.532-0.103-0.943-0.309-1.232s-0.557-0.505-1.051-0.647
		c-0.337-0.098-0.802-0.15-1.394-0.158c-0.592-0.007-1.21-0.011-1.854-0.011h-0.943v4.178h0.314c1.214,0,2.082-0.004,2.607-0.012
		c0.523-0.007,1.007-0.104,1.449-0.293c0.449-0.188,0.759-0.437,0.928-0.748C249.333,94.282,249.417,93.924,249.417,93.518z"/>
	<path style="fill:#002E6E;" d="M267.836,93.147h-9.278c0.06,0.991,0.438,1.749,1.132,2.274s1.717,0.788,3.068,0.788
		c0.855,0,1.686-0.153,2.488-0.461c0.804-0.309,1.438-0.639,1.903-0.991h0.45v3.254c-0.916,0.368-1.779,0.635-2.59,0.8
		s-1.708,0.248-2.691,0.248c-2.537,0-4.481-0.57-5.833-1.712c-1.351-1.141-2.026-2.767-2.026-4.876c0-2.087,0.64-3.74,1.92-4.96
		c1.279-1.22,3.034-1.83,5.264-1.83c2.058,0,3.604,0.52,4.64,1.56s1.554,2.535,1.554,4.487v1.419H267.836z M263.805,90.771
		c-0.022-0.849-0.232-1.486-0.63-1.914s-1.018-0.643-1.858-0.643c-0.781,0-1.423,0.203-1.926,0.608s-0.784,1.055-0.845,1.948h5.259
		V90.771z"/>
	<path style="fill:#002E6E;" d="M281.527,89.757v8.964h-4.065v-6.317c0-0.615-0.015-1.14-0.045-1.571s-0.112-0.782-0.248-1.053
		c-0.135-0.271-0.34-0.467-0.613-0.591c-0.274-0.124-0.659-0.186-1.154-0.186c-0.398,0-0.785,0.08-1.16,0.241
		c-0.375,0.162-0.713,0.333-1.014,0.513v8.964h-4.064V86.075h4.064v1.396c0.697-0.548,1.365-0.976,2.002-1.283
		c0.638-0.308,1.343-0.462,2.114-0.462c0.833,0,1.567,0.186,2.205,0.558c0.637,0.371,1.136,0.918,1.495,1.639
		c0.81-0.684,1.597-1.221,2.361-1.61c0.765-0.391,1.515-0.586,2.249-0.586c1.364,0,2.4,0.409,3.109,1.228
		c0.708,0.818,1.063,1.997,1.063,3.536v8.231h-4.065v-6.317c0-0.623-0.013-1.148-0.039-1.576c-0.026-0.429-0.107-0.777-0.242-1.048
		c-0.128-0.271-0.33-0.467-0.608-0.591c-0.277-0.124-0.668-0.186-1.171-0.186c-0.338,0-0.668,0.058-0.991,0.174
		C282.386,89.294,281.992,89.487,281.527,89.757z"/>
	<path style="fill:#002E6E;" d="M312.287,89.757v8.964h-4.065v-6.317c0-0.615-0.015-1.14-0.045-1.571s-0.112-0.782-0.248-1.053
		c-0.135-0.271-0.34-0.467-0.613-0.591c-0.274-0.124-0.659-0.186-1.154-0.186c-0.398,0-0.785,0.08-1.16,0.241
		c-0.375,0.162-0.713,0.333-1.014,0.513v8.964h-4.064V86.075h4.064v1.396c0.697-0.548,1.365-0.976,2.002-1.283
		c0.638-0.308,1.343-0.462,2.114-0.462c0.833,0,1.567,0.186,2.205,0.558c0.637,0.371,1.136,0.918,1.495,1.639
		c0.81-0.684,1.597-1.221,2.361-1.61c0.765-0.391,1.515-0.586,2.249-0.586c1.364,0,2.4,0.409,3.109,1.228
		c0.708,0.818,1.063,1.997,1.063,3.536v8.231h-4.065v-6.317c0-0.623-0.013-1.148-0.039-1.576c-0.026-0.429-0.107-0.777-0.242-1.048
		c-0.128-0.271-0.33-0.467-0.608-0.591c-0.277-0.124-0.668-0.186-1.171-0.186c-0.338,0-0.668,0.058-0.991,0.174
		C313.146,89.294,312.751,89.487,312.287,89.757z"/>
	<path style="fill:#002E6E;" d="M335.265,93.147h-9.278c0.06,0.991,0.438,1.749,1.132,2.274s1.717,0.788,3.068,0.788
		c0.855,0,1.686-0.153,2.488-0.461c0.804-0.309,1.438-0.639,1.903-0.991h0.45v3.254c-0.916,0.368-1.779,0.635-2.59,0.8
		s-1.708,0.248-2.691,0.248c-2.537,0-4.481-0.57-5.833-1.712c-1.351-1.141-2.026-2.767-2.026-4.876c0-2.087,0.64-3.74,1.92-4.96
		c1.279-1.22,3.034-1.83,5.264-1.83c2.058,0,3.604,0.52,4.64,1.56s1.554,2.535,1.554,4.487L335.265,93.147L335.265,93.147z
		 M331.234,90.771c-0.022-0.849-0.232-1.486-0.63-1.914s-1.018-0.643-1.858-0.643c-0.781,0-1.423,0.203-1.926,0.608
		s-0.784,1.055-0.845,1.948h5.259V90.771z"/>
	<path style="fill:#002E6E;" d="M340.667,98.721h-4.065V81.2h4.065V98.721z"/>
	<path style="fill:#002E6E;" d="M355.663,98.721h-4.065v-6.272c0-0.511-0.026-1.02-0.078-1.525
		c-0.053-0.507-0.143-0.881-0.271-1.121c-0.15-0.277-0.37-0.48-0.659-0.607c-0.289-0.128-0.692-0.191-1.21-0.191
		c-0.368,0-0.741,0.06-1.12,0.18c-0.38,0.12-0.791,0.312-1.233,0.574v8.964h-4.065V81.202h4.065v6.271
		c0.72-0.563,1.411-0.994,2.074-1.295c0.664-0.3,1.4-0.45,2.21-0.45c1.365,0,2.432,0.398,3.2,1.193
		c0.769,0.796,1.152,1.986,1.152,3.57V98.721z"/>
	<path style="fill:#002E6E;" d="M370.794,92.404c0,2.079-0.606,3.718-1.819,4.915c-1.212,1.197-2.914,1.796-5.106,1.796
		s-3.895-0.599-5.106-1.796c-1.213-1.197-1.818-2.836-1.818-4.915c0-2.095,0.609-3.738,1.829-4.933
		c1.221-1.193,2.919-1.79,5.096-1.79c2.207,0,3.913,0.601,5.118,1.802S370.794,90.324,370.794,92.404z M365.806,95.478
		c0.263-0.323,0.459-0.711,0.591-1.166c0.131-0.454,0.197-1.082,0.197-1.886c0-0.743-0.067-1.366-0.203-1.869
		c-0.135-0.503-0.322-0.904-0.563-1.205c-0.241-0.308-0.529-0.525-0.867-0.653c-0.338-0.127-0.702-0.191-1.093-0.191
		s-0.737,0.053-1.041,0.158c-0.305,0.104-0.596,0.315-0.873,0.63c-0.248,0.293-0.445,0.695-0.591,1.205
		c-0.146,0.511-0.22,1.152-0.22,1.926c0,0.69,0.063,1.289,0.191,1.796c0.127,0.507,0.315,0.914,0.563,1.222
		c0.24,0.293,0.527,0.507,0.861,0.643c0.334,0.135,0.716,0.202,1.144,0.202c0.367,0,0.719-0.062,1.053-0.186
		S365.573,95.771,365.806,95.478z"/>
	<path style="fill:#002E6E;" d="M381.341,89.938h-0.359c-0.172-0.061-0.449-0.105-0.831-0.136c-0.382-0.029-0.7-0.045-0.955-0.045
		c-0.577,0-1.086,0.038-1.528,0.112c-0.441,0.075-0.918,0.203-1.427,0.384v8.468h-4.065V86.075h4.065v1.857
		c0.892-0.766,1.666-1.274,2.325-1.525c0.659-0.252,1.267-0.378,1.82-0.378c0.143,0,0.304,0.004,0.483,0.012
		s0.337,0.019,0.472,0.034L381.341,89.938L381.341,89.938z"/>
</g>
<path style="fill-rule:evenodd;clip-rule:evenodd;fill:#EF6C00;" d="M369.856,71.289c-0.647,0.489-1.467,1.092-2.424,1.776
	c-0.961,0.685-1.882,1.24-2.73,1.627c-1.175,0.536-2.414,0.937-3.676,1.195c-1.264,0.257-2.66,0.399-4.174,0.399
	c-3.54,0-6.491-1.112-8.836-3.312c-2.351-2.207-3.498-5.02-3.431-8.457c0.054-2.743,0.719-4.988,1.964-6.715
	c1.25-1.735,3.015-3.121,5.26-4.12c2.235-0.995,5.007-1.719,8.294-2.14c3.286-0.421,6.695-0.728,10.228-0.933l0.004-0.205
	c0.04-2.06-0.779-3.499-2.443-4.279c-1.665-0.781-4.143-1.184-7.421-1.184c-1.969,0-4.087,0.354-6.326,1.047
	c-2.252,0.697-3.871,1.241-4.858,1.616h-1.092l0.177-9.06c1.27-0.33,3.342-0.733,6.192-1.184c2.849-0.45,5.716-0.683,8.573-0.683
	c6.806,0,11.705,1.055,14.678,3.153c2.98,2.104,4.435,5.416,4.347,9.914l-0.5,25.518h-11.883L369.856,71.289L369.856,71.289z
	 M369.97,65.484l0.153-7.842c-1.619,0.137-3.367,0.329-5.246,0.558c-1.877,0.228-3.313,0.512-4.284,0.819
	c-1.195,0.378-2.132,0.935-2.764,1.65c-0.638,0.722-0.978,1.685-1.001,2.868c-0.016,0.785,0.038,1.418,0.155,1.912
	c0.116,0.487,0.46,0.952,0.974,1.4c0.495,0.431,1.104,0.779,1.802,0.99c0.697,0.211,1.803,0.319,3.306,0.319
	c1.195,0,2.41-0.257,3.634-0.74C367.933,66.933,369.032,66.281,369.97,65.484z"/>
<path style="fill-rule:evenodd;clip-rule:evenodd;fill:#EF6C00;" d="M341.608,75.216c-1.293,0.342-2.68,0.602-4.124,0.786
	c-1.446,0.184-3.227,0.285-5.321,0.285c-4.678,0-8.144-0.952-10.381-2.834c-2.244-1.888-3.325-5.122-3.236-9.708l0.343-17.505h-7.35
	l0.159-8.127h7.349l0.21-10.721h12.019l-0.21,10.721h11.268l-0.159,8.127h-11.268l-0.26,13.294c-0.026,1.313-0.037,2.47-0.034,3.449
	c0.004,0.979,0.18,1.856,0.483,2.64c0.296,0.767,0.84,1.407,1.614,1.856c0.783,0.454,1.933,0.683,3.447,0.683
	c0.626,0,1.452-0.141,2.466-0.41s1.74-0.524,2.143-0.751h1.002L341.608,75.216z"/>
<path style="fill-rule:evenodd;clip-rule:evenodd;fill:#EF6C00;" d="M310.567,62.39c-0.076,3.87-1.867,6.988-5.384,9.344
	c-3.507,2.367-8.276,3.552-14.297,3.552c-3.335,0-6.356-0.307-9.053-0.934c-2.697-0.614-4.857-1.309-6.493-2.06l0.193-9.845h1.104
	c0.584,0.421,1.269,0.876,2.044,1.377c0.787,0.501,1.892,1.035,3.315,1.616c1.242,0.5,2.634,0.944,4.208,1.309
	c1.564,0.364,3.256,0.546,5.054,0.546c2.345,0,4.091-0.262,5.24-0.785c1.137-0.523,1.721-1.297,1.742-2.322
	c0.018-0.91-0.3-1.571-0.963-1.98c-0.652-0.41-1.919-0.797-3.778-1.184c-0.884-0.193-2.087-0.41-3.607-0.649
	c-1.509-0.227-2.892-0.512-4.127-0.842c-3.386-0.888-5.885-2.276-7.487-4.154c-1.614-1.878-2.387-4.211-2.333-7.011
	c0.071-3.597,1.837-6.59,5.298-8.969c3.461-2.39,8.151-3.585,14.058-3.585c2.8,0,5.481,0.285,8.042,0.854s4.552,1.172,5.985,1.821
	l-0.186,9.481h-1.035c-1.751-1.229-3.759-2.232-6.019-3.005s-4.564-1.161-6.897-1.161c-1.935,0-3.569,0.263-4.898,0.797
	c-1.33,0.534-2.006,1.298-2.025,2.277c-0.017,0.887,0.267,1.56,0.859,2.026c0.593,0.466,1.997,0.933,4.207,1.4
	c1.224,0.251,2.529,0.49,3.935,0.717c1.406,0.226,2.824,0.523,4.24,0.887c3.137,0.819,5.445,2.106,6.924,3.87
	C309.91,57.553,310.619,59.749,310.567,62.39z"/>
<path style="fill-rule:evenodd;clip-rule:evenodd;fill:#EF6C00;" d="M274.011,57.803h-27.453c0.125,2.936,1.196,5.19,3.214,6.75
	c2.03,1.559,5.042,2.333,9.048,2.333c2.527,0,4.995-0.467,7.392-1.389c2.396-0.922,4.294-1.923,5.692-2.982h1.331l-0.189,9.663
	c-2.73,1.092-5.307,1.878-7.718,2.367c-2.411,0.489-5.08,0.74-7.982,0.74c-7.523,0-13.25-1.685-17.19-5.065
	c-3.929-3.38-5.837-8.194-5.715-14.443c0.121-6.18,2.106-11.074,5.967-14.682c3.861-3.608,9.098-5.418,15.699-5.418
	c6.09,0,10.635,1.537,13.647,4.621c3.002,3.084,4.452,7.512,4.338,13.305L274.011,57.803L274.011,57.803z M262.198,50.769
	c-0.019-2.516-0.596-4.405-1.755-5.68c-1.147-1.263-2.967-1.901-5.449-1.901c-2.31,0-4.211,0.603-5.726,1.798
	c-1.504,1.207-2.372,3.13-2.606,5.782L262.198,50.769L262.198,50.769z"/>
<path style="fill-rule:evenodd;clip-rule:evenodd;fill:#EF6C00;" d="M232.108,49.335h-1.059c-0.509-0.181-1.328-0.319-2.462-0.41
	c-1.124-0.089-2.069-0.137-2.82-0.137c-1.707,0-3.212,0.114-4.525,0.331c-1.314,0.227-2.732,0.603-4.245,1.138l-0.49,25.029h-12.018
	l0.733-37.423h12.019l-0.107,5.498c2.684-2.265,5.002-3.768,6.974-4.518c1.96-0.74,3.766-1.115,5.405-1.115
	c0.421,0,0.9,0.013,1.422,0.034c0.533,0.021,1.001,0.056,1.398,0.102L232.108,49.335z"/>
<path style="fill-rule:evenodd;clip-rule:evenodd;fill:#EF6C00;" d="M202.505,55.365c-0.06,3.084-0.594,5.896-1.588,8.433
	c-0.994,2.527-2.276,4.621-3.844,6.26c-1.639,1.742-3.475,3.051-5.518,3.938c-2.043,0.888-4.226,1.332-6.536,1.332
	c-2.14,0-3.946-0.229-5.428-0.683c-1.481-0.455-2.995-1.093-4.537-1.912l-0.123,17.009h-12.019l0.82-52.589h12.019l-0.076,3.904
	c1.872-1.468,3.785-2.652,5.726-3.563c1.941-0.91,4.17-1.366,6.685-1.366c4.678,0,8.275,1.708,10.803,5.133
	C201.416,44.689,202.622,49.389,202.505,55.365L202.505,55.365z M190.071,55.616c0.072-3.643-0.503-6.295-1.711-7.933
	c-1.208-1.651-3.161-2.47-5.847-2.47c-1.127,0-2.291,0.171-3.504,0.513c-1.203,0.353-2.35,0.842-3.455,1.491l-0.369,18.837
	c0.791,0.319,1.641,0.512,2.549,0.603c0.908,0.091,1.807,0.136,2.695,0.136c3.175,0,5.561-0.934,7.145-2.789
	C189.169,62.148,189.997,59.36,190.071,55.616z"/>
<path style="fill-rule:evenodd;clip-rule:evenodd;fill:#EF6C00;" d="M136.542,48.802l-0.519,26.519h-12.019l0.366-18.689
	c0.036-1.821,0.02-3.369-0.046-4.644c-0.066-1.286-0.285-2.322-0.668-3.118c-0.394-0.797-0.986-1.389-1.787-1.753
	c-0.812-0.365-1.947-0.547-3.415-0.547c-1.184,0-2.338,0.239-3.463,0.717s-2.136,0.979-3.034,1.514l-0.52,26.519H99.419
	l0.733-37.423h12.019l-0.081,4.143c2.104-1.628,4.098-2.891,6.005-3.802c1.907-0.91,3.999-1.366,6.286-1.366
	c2.47,0,4.633,0.546,6.501,1.65c1.868,1.092,3.316,2.709,4.344,4.849c2.43-2.026,4.794-3.608,7.082-4.769
	c2.288-1.15,4.518-1.73,6.692-1.73c4.04,0,7.09,1.206,9.137,3.631c2.058,2.424,3.037,5.907,2.948,10.46l-0.477,24.357h-12.019
	l0.366-18.689c0.036-1.844,0.032-3.404-0.022-4.666c-0.055-1.263-0.274-2.299-0.656-3.096c-0.371-0.797-0.952-1.389-1.775-1.753
	c-0.812-0.365-1.969-0.547-3.46-0.547c-1.002,0-1.996,0.171-2.958,0.512C139.118,47.436,137.935,48.004,136.542,48.802z"/>
<polygon style="fill-rule:evenodd;clip-rule:evenodd;fill:#EF6C00;" points="96.964,75.321 61.101,75.286 61.286,21.008 
	97.207,21.008 97.17,31.507 74.089,31.507 74.057,40.816 95.5,40.816 95.464,51.315 74.021,51.315 73.975,64.644 97.057,64.644 "/>
</svg>
